<svg width="195" height="247" viewBox="0 0 195 247" fill="none" xmlns="http://www.w3.org/2000/svg">
<path fill-rule="evenodd" clip-rule="evenodd" d="M0.00195312 246.076H174.315V35.5824L138.838 0H0.00195312V246.076Z" fill="url(#paint0_linear_407_194)"/>
<path fill-rule="evenodd" clip-rule="evenodd" d="M138.889 35.5293L156.555 17.78L174.315 35.5293V71.1167L138.889 35.5293Z" fill="black" fill-opacity="0.1"/>
<path fill-rule="evenodd" clip-rule="evenodd" d="M174.313 35.5583H138.887V0L174.313 35.5583Z" fill="#0080CD"/>
<g clip-path="url(#clip0_407_194)">
<path d="M138 71.109C138 68.2981 136.012 64.8498 133.583 63.4446L91.4167 39.054C88.9877 37.6487 85.0123 37.6487 82.5833 39.054L40.4167 63.4446C37.9873 64.8496 36 68.2988 36 71.109V119.891C36 122.701 37.9877 126.15 40.4165 127.555L82.5832 151.946C85.0122 153.351 88.9875 153.351 91.4165 151.946L133.583 127.555C134.798 126.852 135.902 125.639 136.702 124.25C137.503 122.861 138 121.296 138 119.891V71.109Z" fill="#0080CD"/>
<path d="M91.4159 151.946L133.583 127.555C134.797 126.852 135.901 125.639 136.702 124.25L86.9992 95.5L37.2969 124.25C38.0972 125.639 39.2015 126.853 40.4159 127.555L82.5825 151.946C85.0115 153.351 88.9869 153.351 91.4159 151.946Z" fill="#00549E"/>
<path d="M87 129.564C68.2523 129.564 53 114.283 53 95.5C53 76.7169 68.2523 61.4358 87 61.4358C99.0973 61.4358 110.38 67.9581 116.444 78.4572L101.729 86.9879C98.6943 81.7327 93.05 78.4679 87 78.4679C77.626 78.4679 70 86.1083 70 95.5C70 104.891 77.626 112.532 87 112.532C93.0507 112.532 98.695 109.267 101.73 104.011L116.445 112.541C110.381 123.042 99.098 129.564 87 129.564Z" fill="white"/>
<path d="M120.999 93.6075H117.221V89.8228H113.444V93.6075H109.666V97.3923H113.444V101.177H117.221V97.3923H120.999V93.6075Z" fill="white"/>
<path d="M135.167 93.6075H131.389V89.8228H127.612V93.6075H123.834V97.3923H127.612V101.177H131.389V97.3923H135.167V93.6075Z" fill="white"/>
</g>
<path fill-rule="evenodd" clip-rule="evenodd" d="M66 164H195V219H66V164Z" fill="#00549E"/>
<path d="M81.291 206.885H89.8932V198.313H81.291V206.885Z" fill="white"/>
<path d="M107.924 207.5C114.649 207.5 118.491 204.555 121.417 200.555L115.042 195.984C113.164 198.225 111.33 199.72 108.142 199.72C103.863 199.72 100.85 196.115 100.85 191.5V191.412C100.85 186.929 103.863 183.236 108.142 183.236C111.112 183.236 113.077 184.687 114.823 186.841L121.198 181.874C118.535 178.137 114.43 175.5 108.23 175.5C98.9725 175.5 92.1607 182.533 92.1607 191.5V191.588C92.1607 200.775 99.1909 207.5 107.924 207.5Z" fill="white"/>
<path d="M125.104 206.885H133.575V198.093H137.811C145.365 198.093 150.91 194.269 150.91 186.973V186.885C150.91 180.071 145.933 176.115 138.247 176.115H125.104V206.885ZM133.575 191.412V183.28H137.592C140.605 183.28 142.483 184.643 142.483 187.28V187.368C142.483 189.83 140.605 191.412 137.636 191.412H133.575Z" fill="white"/>
<path d="M154.485 206.885H162.956V198.093H167.191C174.745 198.093 180.291 194.269 180.291 186.973V186.885C180.291 180.071 175.313 176.115 167.628 176.115H154.485V206.885ZM162.956 191.412V183.28H166.973C169.986 183.28 171.864 184.643 171.864 187.28V187.368C171.864 189.83 169.986 191.412 167.017 191.412H162.956Z" fill="white"/>
<defs>
<linearGradient id="paint0_linear_407_194" x1="14.0722" y1="87.9391" x2="196.986" y2="202.009" gradientUnits="userSpaceOnUse">
<stop stop-color="#0080CD" stop-opacity="0.46"/>
<stop offset="1" stop-color="#470A3F" stop-opacity="0.6"/>
</linearGradient>
<clipPath id="clip0_407_194">
<rect width="102" height="115" fill="white" transform="translate(36 38)"/>
</clipPath>
</defs>
</svg>
